<svg width="32" height="32" viewBox="0 0 32 32" fill="none" xmlns="http://www.w3.org/2000/svg">
<g clip-path="url(#clip0_132_2)">
<rect width="32" height="32" fill="white"/>
<path d="M15.6948 28.494C13.4148 28.494 11.3501 28.228 9.50081 27.696C7.67681 27.164 6.09348 26.366 4.75081 25.302C3.43348 24.238 2.42015 22.9207 1.71081 21.35C1.00148 19.7793 0.646813 17.968 0.646813 15.916C0.646813 13.8387 1.01415 12.002 1.74881 10.406C2.50881 8.78467 3.57281 7.41667 4.94081 6.302C6.33415 5.18733 7.98081 4.35133 9.88081 3.794C11.8061 3.21133 13.9341 2.92 16.2648 2.92C19.0261 2.92 21.4075 3.31267 23.4088 4.098C25.4101 4.858 26.9808 5.93467 28.1208 7.328C29.2861 8.72133 29.9448 10.3807 30.0968 12.306H25.2328C24.9035 11.2927 24.3588 10.4187 23.5988 9.684C22.8641 8.924 21.8888 8.34133 20.6728 7.936C19.4568 7.50533 17.9875 7.29 16.2648 7.29C14.0608 7.29 12.1735 7.64467 10.6028 8.354C9.05748 9.06333 7.87948 10.064 7.06881 11.356C6.25815 12.648 5.85281 14.168 5.85281 15.916C5.85281 17.6133 6.20748 19.0827 6.91681 20.324C7.62615 21.54 8.71548 22.4773 10.1848 23.136C11.6795 23.7947 13.5795 24.124 15.8848 24.124C17.6581 24.124 19.2161 23.896 20.5588 23.44C21.9268 22.9587 23.0668 22.3253 23.9788 21.54C24.8908 20.7293 25.5368 19.83 25.9168 18.842L27.8928 18.12C27.5635 21.388 26.3221 23.934 24.1688 25.758C22.0408 27.582 19.2161 28.494 15.6948 28.494ZM26.6008 28C26.6008 27.2147 26.6515 26.3153 26.7528 25.302C26.8541 24.2633 26.9808 23.2247 27.1328 22.186C27.2848 21.122 27.4241 20.1467 27.5508 19.26H16.3028V16.03H30.9708V28H26.6008Z" fill="#0A1628"/>
<path d="M15.6948 28.494C13.4148 28.494 11.3501 28.228 9.50081 27.696C7.67681 27.164 6.09348 26.366 4.75081 25.302C3.43348 24.238 2.42015 22.9207 1.71081 21.35C1.00148 19.7793 0.646813 17.968 0.646813 15.916C0.646813 13.8387 1.01415 12.002 1.74881 10.406C2.50881 8.78467 3.57281 7.41667 4.94081 6.302C6.33415 5.18733 7.98081 4.35133 9.88081 3.794C11.8061 3.21133 13.9341 2.92 16.2648 2.92C19.0261 2.92 21.4075 3.31267 23.4088 4.098C25.4101 4.858 26.9808 5.93467 28.1208 7.328C29.2861 8.72133 29.9448 10.3807 30.0968 12.306H25.2328C24.9035 11.2927 24.3588 10.4187 23.5988 9.684C22.8641 8.924 21.8888 8.34133 20.6728 7.936C19.4568 7.50533 17.9875 7.29 16.2648 7.29C14.0608 7.29 12.1735 7.64467 10.6028 8.354C9.05748 9.06333 7.87948 10.064 7.06881 11.356C6.25815 12.648 5.85281 14.168 5.85281 15.916C5.85281 17.6133 6.20748 19.0827 6.91681 20.324C7.62615 21.54 8.71548 22.4773 10.1848 23.136C11.6795 23.7947 13.5795 24.124 15.8848 24.124C17.6581 24.124 19.2161 23.896 20.5588 23.44C21.9268 22.9587 23.0668 22.3253 23.9788 21.54C24.8908 20.7293 25.5368 19.83 25.9168 18.842L27.8928 18.12C27.5635 21.388 26.3221 23.934 24.1688 25.758C22.0408 27.582 19.2161 28.494 15.6948 28.494ZM26.6008 28C26.6008 27.2147 26.6515 26.3153 26.7528 25.302C26.8541 24.2633 26.9808 23.2247 27.1328 22.186C27.2848 21.122 27.4241 20.1467 27.5508 19.26H16.3028V16.03H30.9708V28H26.6008Z" fill="#16334F"/>
</g>
<defs>
<clipPath id="clip0_132_2">
<rect width="32" height="32" fill="white"/>
</clipPath>
</defs>
</svg>
